<svg xmlns="http://www.w3.org/2000/svg" version="1.1" xmlns:xlink="http://www.w3.org/1999/xlink" xmlns:svgjs="http://svgjs.dev/svgjs" width="2000" height="1500" viewBox="0 0 2000 1500"><rect width="2000" height="1500" fill="#ffffff"></rect><g transform="matrix(0.75,0,0,0.75,250.35442598622296,476.97959042553197)"><svg viewBox="0 0 388 141" data-background-color="#ffffff" preserveAspectRatio="xMidYMid meet" height="726" width="2000" xmlns="http://www.w3.org/2000/svg" xmlns:xlink="http://www.w3.org/1999/xlink"><g id="tight-bounds" transform="matrix(1,0,0,1,-0.09167818843633313,0.19949999999997203)"><svg viewBox="0 0 388.18335637687267 140.60052000000002" height="140.60052000000002" width="388.18335637687267"><g><svg viewBox="0 0 388.18335637687267 140.60052000000002" height="140.60052000000002" width="388.18335637687267"><g transform="matrix(1,0,0,1,94.51626337687262,0)"><svg viewBox="0 0 293.6670930000001 140.60052000000002" height="140.60052000000002" width="293.6670930000001"><g><path d="M0 140.601v-140.601h293.667v140.601z" fill="#0b87ed" stroke="transparent" stroke-width="0" rx="0%" data-fill-palette-color="tertiary"></path><path d="M3.283 137.317v-134.034h287.101v134.034z" fill="#ffffff" stroke="transparent" stroke-width="0" rx="0%" data-fill-palette-color="quaternary"></path><path d="M9.85 130.751v-120.901h273.967v120.901z" fill="#0b87ed" stroke="transparent" stroke-width="0" data-fill-palette-color="tertiary"></path></g><g transform="matrix(1,0,0,1,19.69974,19.69974)" id="textblocktransform"><svg viewBox="0 0 254.26761300000007 101.20104000000002" height="101.20104000000002" width="254.26761300000007" id="textblock"><g><svg viewBox="0 0 254.26761300000007 101.20104000000002" height="101.20104000000002" width="254.26761300000007"><g transform="matrix(1,0,0,1,0,0)"><svg width="254.26761300000007" viewBox="0.05 -37.95 120.59 48" height="101.20104000000002" data-palette-color="#ffffff"><path d="M32.3 0L26.9 0Q26.65-0.55 26.2-1.6 25.75-2.65 25.18-4.03 24.6-5.4 23.93-7.03 23.25-8.65 22.55-10.4L22.55-10.4 9.75-10.4 5.45 0 0.05 0 16.2-37.95Q16.5-37.25 17.28-35.4 18.05-33.55 19.13-30.98 20.2-28.4 21.53-25.28 22.85-22.15 24.23-18.95 25.6-15.75 26.93-12.65 28.25-9.55 29.35-6.95 30.45-4.35 31.23-2.53 32-0.7 32.3 0L32.3 0ZM15.65-24.7L11.65-15 20.7-15Q20-16.65 19.38-18.18 18.75-19.7 18.23-20.98 17.7-22.25 17.3-23.2 16.9-24.15 16.7-24.7L16.7-24.7Q16.65-24.8 16.48-25.4 16.3-26 16.2-26.5L16.2-26.5Q16.1-26 15.9-25.4 15.7-24.8 15.65-24.7L15.65-24.7ZM47.8-21.45L46.85-15.95Q45.45-15.95 44.15-15.58 42.85-15.2 41.82-14.45 40.8-13.7 40.2-12.58 39.6-11.45 39.6-10L39.6-10 39.6 0 35.35 0 35.35-20.9 39.1-20.9Q39.2-19.35 39.27-18.07 39.35-16.8 39.45-15.55L39.45-15.55Q40.1-16.9 41.15-18 42.2-19.1 43.4-19.85 44.6-20.6 45.75-21.03 46.9-21.45 47.8-21.45L47.8-21.45ZM71.55-20.9L56.65 10.05 52.35 10.05Q53.05 8.6 53.67 7.28 54.3 5.95 54.92 4.58 55.55 3.2 56.2 1.73 56.85 0.25 57.65-1.45L57.65-1.45Q56.5-3.7 55.3-6.18 54.1-8.65 52.9-11.15 51.7-13.65 50.52-16.15 49.35-18.65 48.2-20.9L48.2-20.9 52.85-20.9Q54.65-17.35 55.82-14.9 57-12.45 57.77-10.68 58.55-8.9 59.02-7.65 59.5-6.4 59.85-5.35L59.85-5.35Q60.25-6.4 60.72-7.65 61.2-8.9 61.97-10.68 62.75-12.45 63.92-14.9 65.1-17.35 66.9-20.9L66.9-20.9 71.55-20.9ZM72.64-10.25L72.64-10.25Q72.64-12.55 73.52-14.58 74.39-16.6 75.89-18.13 77.39-19.65 79.37-20.55 81.34-21.45 83.59-21.45L83.59-21.45Q85.09-21.45 86.34-21.08 87.59-20.7 88.49-20.15 89.39-19.6 89.94-19 90.49-18.4 90.69-17.95L90.69-17.95 90.89-20.9 94.99-20.9 94.99 0 90.69 0 90.69-2.65Q90.44-2.25 89.89-1.7 89.34-1.15 88.47-0.68 87.59-0.2 86.39 0.15 85.19 0.5 83.64 0.5L83.64 0.5Q81.24 0.5 79.22-0.38 77.19-1.25 75.74-2.73 74.29-4.2 73.47-6.15 72.64-8.1 72.64-10.25ZM76.94-10.5L76.94-10.5Q76.94-9.05 77.47-7.8 77.99-6.55 78.89-5.65 79.79-4.75 81.04-4.23 82.29-3.7 83.79-3.7L83.79-3.7Q85.29-3.7 86.57-4.23 87.84-4.75 88.77-5.68 89.69-6.6 90.19-7.83 90.69-9.05 90.69-10.5L90.69-10.5Q90.69-11.95 90.19-13.18 89.69-14.4 88.77-15.3 87.84-16.2 86.57-16.73 85.29-17.25 83.79-17.25L83.79-17.25Q82.29-17.25 81.04-16.73 79.79-16.2 78.89-15.3 77.99-14.4 77.47-13.18 76.94-11.95 76.94-10.5ZM100.99 0L100.99-20.9 104.74-20.9Q104.84-19.35 104.92-18.07 104.99-16.8 105.09-15.55L105.09-15.55Q106.24-18.25 108.37-19.85 110.49-21.45 113.59-21.45L113.59-21.45Q116.74-21.45 118.64-19.7 120.54-17.95 120.64-15.2L120.64-15.2 120.64 0 116.34 0 116.34-13.25Q116.24-14.85 115.24-15.98 114.24-17.1 112.09-17.2L112.09-17.2Q110.59-17.2 109.34-16.68 108.09-16.15 107.19-15.25 106.29-14.35 105.77-13.1 105.24-11.85 105.24-10.35L105.24-10.35 105.24 0 100.99 0Z" opacity="1" transform="matrix(1,0,0,1,0,0)" fill="#ffffff" class="wordmark-text-0" data-fill-palette-color="quaternary" id="text-0"></path></svg></g></svg></g></svg></g></svg></g><g transform="matrix(1,0,0,1,0,0.3703413599999834)"><svg viewBox="0 0 87.94968337687261 139.85983728000005" height="139.85983728000005" width="87.94968337687261"><g><svg xmlns="http://www.w3.org/2000/svg" xmlns:xlink="http://www.w3.org/1999/xlink" version="1.1" x="0" y="0" viewBox="0.0014201694633387929 0 62.88415966107335 100" enable-background="new 0 0 62.884 100" xml:space="preserve" width="87.94968337687261" height="139.85983728000005" class="icon-icon-0" data-fill-palette-color="accent" id="icon-0"><circle cx="34.778" cy="13.579" r="1.3" fill="#cdd6bb" data-fill-palette-color="accent"></circle><path d="M62.498 64.036l0.007-0.003c-0.017-0.045-0.038-0.087-0.056-0.132-0.043-0.11-0.089-0.218-0.137-0.324-0.041-0.089-0.083-0.176-0.127-0.262-0.047-0.093-0.097-0.184-0.148-0.273-0.056-0.095-0.111-0.188-0.17-0.279-0.049-0.074-0.1-0.147-0.15-0.219-0.069-0.098-0.14-0.193-0.215-0.287-0.05-0.062-0.103-0.124-0.155-0.186-0.08-0.092-0.161-0.183-0.245-0.27-0.059-0.06-0.12-0.117-0.181-0.176-0.083-0.079-0.166-0.156-0.253-0.229-0.074-0.063-0.15-0.123-0.228-0.183-0.078-0.061-0.156-0.12-0.236-0.177-0.094-0.066-0.19-0.128-0.288-0.188-0.069-0.043-0.138-0.086-0.208-0.127-0.112-0.063-0.227-0.122-0.343-0.18-0.061-0.029-0.121-0.06-0.183-0.088l-0.573-3.53c0.832-0.358 1.321-0.732 1.267-1.041l-1.531-8.458c-0.161-1.018-0.896-2.961-0.896-2.961L52.466 34.5c0 0-2.089-3.615-4.74-3.856l-2.218 0.058-0.017-0.099c-0.568-3.299-2.503-2.73-2.503-2.73h-3.527V25.37h-1.024c2.892 0 5.234-1.65 5.234-3.684V7.666c0-2.034-2.343-3.684-5.234-3.684h-1.308V0H25.754v3.982h-1.307c-2.891 0-5.234 1.649-5.234 3.684v14.02c0 2.034 2.343 3.684 5.234 3.684h-1.025v2.502h-3.527c0 0-1.934-0.568-2.503 2.73l-0.017 0.099-2.218-0.058c-2.651 0.241-4.741 3.856-4.741 3.856l-4.981 9.963c0 0-0.735 1.943-0.896 2.961l-1.531 8.458c-0.054 0.309 0.434 0.683 1.268 1.041l-0.574 3.53c-0.062 0.028-0.122 0.059-0.183 0.088-0.116 0.058-0.231 0.116-0.343 0.18-0.071 0.041-0.139 0.084-0.208 0.127-0.098 0.061-0.194 0.122-0.288 0.188-0.081 0.057-0.158 0.116-0.236 0.177-0.077 0.06-0.154 0.119-0.228 0.183-0.087 0.073-0.17 0.15-0.252 0.229-0.061 0.059-0.122 0.116-0.181 0.176-0.085 0.087-0.166 0.178-0.245 0.27-0.053 0.062-0.106 0.123-0.156 0.186-0.074 0.094-0.145 0.189-0.214 0.287-0.051 0.071-0.102 0.145-0.15 0.219-0.059 0.092-0.115 0.185-0.169 0.279-0.052 0.09-0.102 0.181-0.149 0.273-0.044 0.086-0.085 0.173-0.126 0.262-0.048 0.106-0.094 0.214-0.137 0.324-0.018 0.045-0.04 0.087-0.056 0.132l0.007 0.003c-0.245 0.671-0.385 1.393-0.385 2.149-0.043 1.555 0.799 3.803 1.644 3.803 1.319 0 0.847-2.593 0.847-3.803h0.002c0-0.49 0.096-0.957 0.265-1.388 0.024-0.062 0.049-0.121 0.076-0.181 0.026-0.058 0.054-0.115 0.083-0.172 0.026-0.052 0.054-0.102 0.083-0.151 0.035-0.062 0.071-0.121 0.109-0.181 0.028-0.041 0.056-0.082 0.085-0.123 0.043-0.061 0.088-0.121 0.135-0.18 0.029-0.037 0.06-0.072 0.09-0.107 0.048-0.057 0.099-0.112 0.15-0.166 0.036-0.036 0.072-0.071 0.109-0.106 0.05-0.047 0.099-0.093 0.151-0.137 0.046-0.04 0.094-0.077 0.142-0.114 0.045-0.035 0.09-0.069 0.136-0.103 0.061-0.042 0.122-0.082 0.185-0.12 0.037-0.023 0.074-0.046 0.112-0.068 0.074-0.042 0.148-0.081 0.225-0.118 0.031-0.015 0.062-0.03 0.093-0.044 0.082-0.038 0.166-0.071 0.25-0.103 0.029-0.011 0.059-0.022 0.088-0.033 0.084-0.028 0.17-0.054 0.256-0.077 0.035-0.009 0.069-0.018 0.104-0.026 0.081-0.02 0.163-0.035 0.245-0.049 0.044-0.008 0.088-0.015 0.132-0.02 0.075-0.011 0.15-0.018 0.226-0.023 0.053-0.003 0.106-0.006 0.16-0.008 0.073-0.002 0.146-0.002 0.219-0.001 0.051 0.002 0.102 0.005 0.153 0.009 0.081 0.005 0.162 0.013 0.243 0.023 0.037 0.005 0.074 0.011 0.11 0.017 0.095 0.016 0.19 0.034 0.284 0.057 0.022 0.006 0.044 0.012 0.066 0.018 0.105 0.027 0.211 0.06 0.315 0.097 0.015 0.006 0.029 0.011 0.044 0.016 0.105 0.04 0.208 0.084 0.309 0.131 0.018 0.009 0.035 0.018 0.052 0.025 0.093 0.046 0.183 0.096 0.27 0.147 0.024 0.015 0.048 0.029 0.072 0.044 0.079 0.049 0.155 0.102 0.229 0.156 0.028 0.021 0.056 0.041 0.083 0.063 0.069 0.053 0.134 0.109 0.199 0.167 0.028 0.024 0.056 0.05 0.083 0.075 0.063 0.06 0.124 0.122 0.182 0.187 0.023 0.025 0.046 0.05 0.068 0.075 0.061 0.07 0.119 0.144 0.174 0.217 0.016 0.021 0.032 0.043 0.047 0.064 0.059 0.082 0.113 0.166 0.165 0.251 0.01 0.017 0.02 0.033 0.029 0.049 0.053 0.092 0.102 0.185 0.147 0.28 0.007 0.013 0.014 0.027 0.02 0.041 0.044 0.095 0.083 0.193 0.119 0.292 0.006 0.017 0.013 0.033 0.019 0.051 0.032 0.093 0.06 0.188 0.085 0.284 0.007 0.026 0.014 0.054 0.021 0.08 0.021 0.086 0.038 0.172 0.052 0.26 0.006 0.04 0.013 0.082 0.019 0.123 0.01 0.075 0.017 0.151 0.022 0.229 0.004 0.054 0.007 0.108 0.008 0.163 0.014 0.467-0.056 0.944-0.226 1.41-0.414 1.136-1.853 3.376-0.613 3.826 0.793 0.289 2.41-1.486 2.953-2.975l0.002 0.001c0.259-0.712 0.374-1.438 0.374-2.154h0.007c0-0.053-0.006-0.104-0.008-0.155-0.003-0.107-0.008-0.215-0.016-0.321-0.008-0.109-0.019-0.219-0.033-0.326-0.011-0.087-0.025-0.174-0.04-0.26-0.022-0.126-0.046-0.251-0.075-0.374-0.016-0.065-0.033-0.129-0.049-0.192-0.038-0.14-0.078-0.277-0.125-0.412-0.017-0.05-0.036-0.098-0.054-0.146-0.053-0.144-0.11-0.284-0.173-0.422-0.02-0.045-0.042-0.088-0.063-0.133-0.066-0.136-0.135-0.269-0.21-0.399-0.028-0.049-0.059-0.097-0.088-0.145-0.074-0.12-0.15-0.238-0.231-0.353-0.041-0.058-0.083-0.112-0.126-0.168-0.077-0.102-0.155-0.202-0.239-0.299-0.054-0.062-0.109-0.121-0.165-0.182-0.081-0.086-0.162-0.171-0.247-0.253-0.031-0.029-0.064-0.059-0.097-0.088l0.545-3.354c0.838-0.016 1.462-0.129 1.741-0.335v2.428h1.366v5.006l-1.138 26.734V100H30.02v-7.964V80.66h2.844v11.376V100h16.951v-7.964l-1.138-26.734v-5.006h1.365v-2.428c0.279 0.205 0.902 0.319 1.74 0.335l0.546 3.354c-0.032 0.029-0.066 0.059-0.098 0.088-0.085 0.082-0.166 0.167-0.246 0.253-0.057 0.061-0.112 0.12-0.165 0.182-0.084 0.097-0.162 0.197-0.239 0.299-0.043 0.056-0.085 0.11-0.126 0.168-0.081 0.114-0.157 0.232-0.23 0.353-0.03 0.048-0.06 0.096-0.088 0.145-0.076 0.131-0.145 0.264-0.21 0.399-0.022 0.045-0.044 0.088-0.064 0.133-0.062 0.138-0.119 0.278-0.172 0.422-0.019 0.049-0.037 0.097-0.054 0.146-0.047 0.135-0.087 0.272-0.125 0.412-0.017 0.063-0.034 0.127-0.049 0.192-0.029 0.123-0.054 0.248-0.075 0.374-0.015 0.086-0.028 0.173-0.039 0.26-0.015 0.107-0.024 0.217-0.033 0.326-0.008 0.106-0.014 0.214-0.017 0.321-0.001 0.052-0.008 0.103-0.008 0.155h0.008c0 0.716 0.115 1.442 0.374 2.154l0.002-0.001c0.543 1.488 2.159 3.264 2.953 2.975 1.239-0.45-0.199-2.69-0.613-3.826-0.169-0.466-0.238-0.943-0.225-1.41 0.001-0.055 0.004-0.109 0.008-0.163 0.006-0.077 0.013-0.153 0.022-0.229 0.006-0.041 0.013-0.083 0.02-0.123 0.015-0.088 0.031-0.174 0.052-0.26 0.006-0.026 0.014-0.054 0.021-0.08 0.025-0.097 0.053-0.191 0.085-0.284 0.007-0.018 0.013-0.034 0.02-0.051 0.035-0.099 0.075-0.197 0.119-0.292 0.006-0.014 0.013-0.028 0.02-0.041 0.046-0.096 0.095-0.188 0.147-0.28 0.01-0.016 0.02-0.032 0.029-0.049 0.052-0.085 0.106-0.169 0.165-0.251 0.016-0.021 0.031-0.043 0.047-0.064 0.056-0.073 0.113-0.146 0.175-0.217 0.021-0.025 0.045-0.05 0.068-0.075 0.059-0.064 0.119-0.127 0.182-0.187 0.027-0.025 0.056-0.051 0.083-0.075 0.064-0.058 0.13-0.114 0.198-0.167 0.027-0.022 0.057-0.042 0.084-0.063 0.074-0.055 0.15-0.107 0.229-0.156 0.022-0.015 0.047-0.029 0.071-0.044 0.087-0.052 0.177-0.102 0.27-0.147 0.018-0.008 0.035-0.017 0.053-0.025 0.1-0.047 0.203-0.091 0.309-0.131 0.015-0.005 0.029-0.01 0.044-0.016 0.104-0.037 0.21-0.069 0.315-0.097 0.022-0.006 0.044-0.012 0.066-0.018 0.095-0.022 0.189-0.041 0.284-0.057 0.036-0.006 0.073-0.012 0.11-0.017 0.081-0.011 0.162-0.019 0.243-0.023 0.051-0.004 0.102-0.007 0.152-0.009 0.073-0.001 0.146-0.001 0.22 0.001 0.053 0.002 0.105 0.005 0.159 0.008 0.075 0.006 0.15 0.013 0.226 0.023 0.044 0.005 0.088 0.012 0.132 0.02 0.083 0.014 0.165 0.029 0.245 0.049 0.035 0.009 0.069 0.018 0.104 0.026 0.087 0.023 0.172 0.049 0.256 0.077 0.03 0.011 0.06 0.022 0.089 0.033 0.085 0.031 0.168 0.064 0.25 0.103 0.031 0.014 0.062 0.029 0.093 0.044 0.076 0.037 0.151 0.076 0.225 0.118 0.038 0.022 0.075 0.045 0.112 0.068 0.062 0.038 0.124 0.078 0.185 0.12 0.046 0.033 0.091 0.067 0.136 0.103 0.048 0.037 0.096 0.074 0.143 0.114 0.052 0.044 0.102 0.09 0.151 0.137 0.036 0.035 0.073 0.07 0.109 0.106 0.052 0.054 0.102 0.109 0.15 0.166 0.03 0.035 0.061 0.07 0.09 0.107 0.047 0.059 0.092 0.119 0.135 0.18 0.029 0.041 0.058 0.082 0.085 0.123 0.038 0.06 0.074 0.119 0.109 0.181 0.028 0.05 0.056 0.1 0.083 0.151 0.028 0.057 0.056 0.114 0.082 0.172 0.027 0.06 0.053 0.119 0.076 0.181 0.169 0.431 0.266 0.897 0.266 1.388h0.001c0 1.21-0.471 3.803 0.848 3.803 0.845 0 1.687-2.248 1.644-3.803C62.882 65.429 62.742 64.707 62.498 64.036zM4.539 55.435l1.391-7.995c0.126-1.45 1.64-0.624 1.64-0.624l1.335 8.609C5.877 54.984 4.539 55.435 4.539 55.435zM40.482 6.495c0.519 0 0.939 0.72 0.939 1.607v13.284c0 0.888-0.421 1.607-0.939 1.607h-9.263v-2.277c-0.021 0-0.041 0.001-0.062 0.001-2.173 0-3.812-0.816-3.812-1.899h0.684c0 0.574 1.338 1.216 3.128 1.216 0.021 0 0.042-0.001 0.062-0.001V6.495H40.482zM37.458 25.135v2.143h-5.356v-2.143H37.458zM30.708 1.138h5.356v2.143h-5.356V1.138zM27.475 12.303c0.704 0 1.274 0.571 1.274 1.274 0 0.704-0.57 1.275-1.274 1.275S26.2 14.281 26.2 13.577C26.2 12.874 26.771 12.303 27.475 12.303zM27.763 92.341H15.335v-1.464h12.427V92.341zM25.065 58.477l7.15-29.105 9.84-0.036c0.888 0 1.606 0.75 1.606 1.675l3.391 27.367L25.065 58.477zM30.28 62.845V60.38h16.712v2.465H30.28zM47.528 92.341H35.101v-1.464h12.427V92.341zM51.919 47.418l-4.713-14.57c1.714-0.428 3.214 1.714 3.214 1.714l5.142 11.57L51.919 47.418z" fill="#cdd6bb" data-fill-palette-color="accent"></path><path d="M34.907 18.819h-0.684c0 0.567-1.308 1.2-3.066 1.215v0.683C33.298 20.701 34.907 19.891 34.907 18.819z" fill="#cdd6bb" data-fill-palette-color="accent"></path></svg></g></svg></g></svg></g><defs></defs></svg><rect width="388.18335637687267" height="140.60052000000002" fill="none" stroke="none" visibility="hidden"></rect></g></svg></g></svg>